<svg xmlns="http://www.w3.org/2000/svg" xml:space="preserve" width="720" height="300"><style>.st7{fill:#941b1e}</style><g transform="translate(-1.55 -3.3)"><linearGradient id="SVGID_1_" x1="118.98" x2="842.08" y1="-32.663" y2="-32.663" gradientTransform="matrix(1 0 0 -1 -118.98 120.54)" gradientUnits="userSpaceOnUse"><stop offset="0" stop-color="#952331"/><stop offset=".036" stop-color="#921C1D"/><stop offset=".085" stop-color="#B02739"/><stop offset=".124" stop-color="#AD1F24"/><stop offset=".151" stop-color="#C72026"/><stop offset=".17" stop-color="#D42027"/><stop offset=".176" stop-color="#CC2431"/><stop offset=".189" stop-color="#B72B4C"/><stop offset=".207" stop-color="#953371"/><stop offset=".214" stop-color="#88357F"/><stop offset=".244" stop-color="#853681"/><stop offset=".264" stop-color="#6F368B"/><stop offset=".291" stop-color="#39428F"/><stop offset=".324" stop-color="#233D7D"/><stop offset=".418" stop-color="#322C6F"/><stop offset=".494" stop-color="#2A3885"/><stop offset=".558" stop-color="#1D62A1"/><stop offset=".57" stop-color="#276CA5"/><stop offset=".61" stop-color="#438EB3"/><stop offset=".64" stop-color="#55A5BC"/><stop offset=".656" stop-color="#5CAFBF"/><stop offset=".678" stop-color="#56ABBD"/><stop offset=".706" stop-color="#439FB8"/><stop offset=".737" stop-color="#188EAF"/><stop offset=".743" stop-color="#038BAE"/><stop offset=".79" stop-color="#069292"/><stop offset=".887" stop-color="#05A14B"/><stop offset="1" stop-color="#03927E"/></linearGradient><path d="M0 0h723.1v306.4H0z" style="fill:url(#SVGID_1_)"/><linearGradient id="SVGID_2_" x1="325.08" x2="235.98" y1="-109.26" y2="-109.26" gradientTransform="matrix(1 0 0 -1 -118.98 120.54)" gradientUnits="userSpaceOnUse"><stop offset="0" stop-color="#893680"/><stop offset=".335" stop-color="#893680"/><stop offset=".502" stop-color="#8D316D"/><stop offset=".84" stop-color="#90294D"/><stop offset="1" stop-color="#902541"/></linearGradient><path d="M175.1 153.2 117 306.4h89.1z" style="fill:url(#SVGID_2_)"/><linearGradient id="SVGID_3_" x1="478.93" x2="446.55" y1="120.24" y2="-82.284" gradientTransform="matrix(1 0 0 -1 -118.98 120.54)" gradientUnits="userSpaceOnUse"><stop offset="0" stop-color="#322C6F"/><stop offset=".243" stop-color="#322C6F"/><stop offset=".46" stop-color="#302F72"/><stop offset=".716" stop-color="#2A3A7E"/><stop offset=".99" stop-color="#154A93"/><stop offset="1" stop-color="#134B94"/></linearGradient><path d="m288.4 153.2 22.3 153.2h47.4V0h-45.2z" style="fill:url(#SVGID_3_)"/><linearGradient id="SVGID_4_" x1="294.08" x2="372.88" y1="-32.663" y2="-32.663" gradientTransform="matrix(1 0 0 -1 -118.98 120.54)" gradientUnits="userSpaceOnUse"><stop offset="0" stop-color="#6F378D"/><stop offset="1" stop-color="#3A4291"/></linearGradient><path d="m175.1 153.2 31 153.2 47.8-153.2L209.4 0z" style="fill:url(#SVGID_4_)"/><linearGradient id="SVGID_5_" x1="431.88" x2="325.08" y1="-32.663" y2="-32.663" gradientTransform="matrix(1 0 0 -1 -118.98 120.54)" gradientUnits="userSpaceOnUse"><stop offset="0" stop-color="#233D7D"/><stop offset=".249" stop-color="#293D7D"/><stop offset=".545" stop-color="#3A3C80"/><stop offset=".862" stop-color="#513B84"/><stop offset="1" stop-color="#5D3A86"/></linearGradient><path d="m253.9 153.2-47.8 153.2h104.6l-22.3-153.2L312.9 0H209.4z" style="fill:url(#SVGID_5_)"/><path d="M116.1 0H55.7v94.8l34.2 58.4-34.2 58.4v94.8H117L95.2 153.2z" style="fill:#af2024"/><linearGradient id="SVGID_6_" x1="329.11" x2="232.67" y1="43.937" y2="43.937" gradientTransform="matrix(1 0 0 -1 -118.98 120.54)" gradientUnits="userSpaceOnUse"><stop offset="0" stop-color="#893680"/><stop offset=".335" stop-color="#893680"/><stop offset=".502" stop-color="#8D316D"/><stop offset=".84" stop-color="#90294D"/><stop offset="1" stop-color="#902541"/></linearGradient><path d="M175.1 153.2 209.4 0h-93.3z" style="fill:url(#SVGID_6_)"/><path fill="#941b1e" d="M55.7 94.8V0H0z" class="st7"/><path d="m55.7 211.6 34.2-58.4-34.2-58.4z" style="fill:#b12739"/><path fill="#941b1e" d="M55.7 211.6 0 306.4h55.7z" class="st7"/><path d="M55.7 94.8 0 0v306.4l55.7-94.8z" style="fill:#952432"/><path d="M116.1 0 95.2 153.2 117 306.4l58.1-153.2z" style="fill:#d42027"/><linearGradient id="SVGID_7_" x1="748.96" x2="748.96" y1="120.44" y2="-186.06" gradientTransform="matrix(1 0 0 -1 -118.98 120.54)" gradientUnits="userSpaceOnUse"><stop offset="0" stop-color="#94BE55"/><stop offset=".044" stop-color="#93BD58"/><stop offset=".389" stop-color="#8BBC6A"/><stop offset=".715" stop-color="#86BC75"/><stop offset="1" stop-color="#84BC79"/></linearGradient><path d="M641.6 259.6c1.7-25.4 10-54.6 18.8-85.6 1.4-5 2.8-10 4.2-15.1q-2.1-8.25-4.2-16.2c-8.8-33.3-17-64.7-18.8-92-1.4-21.2 1.4-37 8.9-50.6h-45.9c-7.5 18.3-10.3 29.1-8.9 50.3 1.7 27.3 10 58.7 18.8 92 13 49.3 28 106.2 23.2 164.2h12.9c-7.6-12.8-10.4-27.3-9-47" style="fill:url(#SVGID_7_)"/><linearGradient id="SVGID_8_" x1="653.76" x2="733.49" y1="117.29" y2="-184.45" gradientTransform="matrix(1 0 0 -1 -118.98 120.54)" gradientUnits="userSpaceOnUse"><stop offset="0" stop-color="#08A24B"/><stop offset=".168" stop-color="#0AA14E"/><stop offset=".405" stop-color="#0B9E57"/><stop offset=".683" stop-color="#099A67"/><stop offset=".99" stop-color="#04947D"/><stop offset="1" stop-color="#04937E"/></linearGradient><path d="M614.5 142.3c-8.8-33.3-17-64.7-18.8-92-1.4-21.2 1.4-32 8.9-50.3h-35.4c5.7 53.9-3.8 106.7-13.6 166.8-5.7 35-11.7 71.3-13.2 100.6-1.1 21.1.4 32.8 1.8 39h93.5c4.8-57.9-10.3-114.8-23.2-164.1" style="fill:url(#SVGID_8_)"/><path d="M664.6 158.9c-1.4 5.1-2.8 10.1-4.2 15.1-8.8 31-17 60.2-18.8 85.6-1.4 19.7 1.4 34.2 9 46.9h33c4.2-51.8-7.2-102.3-19-147.6" style="fill:#1c9a48"/><linearGradient id="SVGID_9_" x1="812.83" x2="812.83" y1="120.54" y2="-185.96" gradientTransform="matrix(1 0 0 -1 -118.98 120.54)" gradientUnits="userSpaceOnUse"><stop offset="0" stop-color="#69A060"/><stop offset=".04" stop-color="#639D5C"/><stop offset=".219" stop-color="#4C944F"/><stop offset=".418" stop-color="#378E47"/><stop offset=".651" stop-color="#298B44"/><stop offset="1" stop-color="#238A43"/></linearGradient><path d="M680.5 0c10.7 55.3-2.5 110.4-15.9 158.9 11.7 45.3 23.2 95.8 18.9 147.6h39.6V0z" style="fill:url(#SVGID_9_)"/><linearGradient id="SVGID_10_" x1="652.45" x2="652.45" y1="120.54" y2="-185.86" gradientTransform="matrix(1 0 0 -1 -118.98 120.54)" gradientUnits="userSpaceOnUse"><stop offset="0" stop-color="#05B5DC"/><stop offset=".22" stop-color="#04B0D7"/><stop offset=".537" stop-color="#05A4C9"/><stop offset=".912" stop-color="#0591B4"/><stop offset="1" stop-color="#058CAE"/></linearGradient><path d="M542.3 267.4c1.5-29.4 7.5-65.6 13.2-100.6C565.3 106.7 574.8 54 569.1 0h-70.8c-1.4 11.4-2.9 19.2-1.8 41.8 1.5 31.6 7.5 70.5 13.2 108.2 8.4 55.4 16.6 108.8 15.1 156.4H544c-1.3-6.2-2.8-17.9-1.7-39" style="fill:url(#SVGID_10_)"/><path d="M375.7 153.2 358.1 0v306.4z" style="fill:#2a3886"/><linearGradient id="SVGID_11_" x1="751.05" x2="796.71" y1="-4.328" y2="77.136" gradientTransform="matrix(1 0 0 -1 -118.98 120.54)" gradientUnits="userSpaceOnUse"><stop offset="0" stop-color="#62B16E"/><stop offset="1" stop-color="#87B957"/></linearGradient><path d="M641.6 50.6c1.7 27.3 10 58.7 18.8 92q2.1 7.95 4.2 16.2C678.1 110.4 691.2 55.3 680.5 0h-30c-7.5 13.6-10.3 29.4-8.9 50.6" style="fill:url(#SVGID_11_)"/><linearGradient id="SVGID_12_" x1="550.4" x2="631.59" y1="113.71" y2="-189.28" gradientTransform="matrix(1 0 0 -1 -118.98 120.54)" gradientUnits="userSpaceOnUse"><stop offset="0" stop-color="#069AD4"/><stop offset=".352" stop-color="#30A0CE"/><stop offset="1" stop-color="#5BB0C0"/></linearGradient><path d="M509.8 150c-5.7-37.7-11.7-76.6-13.2-108.2-1.1-22.7.4-30.4 1.8-41.8h-41.5c1.5 40.1-1.5 85.3-7 160.8-3.1 43.5-8 110.5-7 145.7H525c1.4-47.7-6.8-101.1-15.2-156.5" style="fill:url(#SVGID_12_)"/><linearGradient id="SVGID_13_" x1="505.33" x2="505.33" y1="120.54" y2="-185.86" gradientTransform="matrix(1 0 0 -1 -118.98 120.54)" gradientUnits="userSpaceOnUse"><stop offset="0" stop-color="#1E458E"/><stop offset=".241" stop-color="#1F4F96"/><stop offset=".729" stop-color="#2B6AAB"/><stop offset="1" stop-color="#337BB9"/></linearGradient><path d="M358.1 306.4h56.5V0h-56.5l17.6 153.2z" style="fill:url(#SVGID_13_)"/><linearGradient id="SVGID_14_" x1="554.92" x2="554.92" y1="-185.86" y2="120.54" gradientTransform="matrix(1 0 0 -1 -118.98 120.54)" gradientUnits="userSpaceOnUse"><stop offset="0" stop-color="#3F9AC9"/><stop offset="1" stop-color="#2062A2"/></linearGradient><path d="M449.9 160.8c5.5-75.5 8.5-120.6 7-160.8h-42.2l-.1 306.4h28.3c-1-35.1 3.8-102.1 7-145.6" style="fill:url(#SVGID_14_)"/></g></svg>